<svg version="1.1" xmlns="http://www.w3.org/2000/svg" xmlns:xlink="http://www.w3.org/1999/xlink" width="43" height="37"><defs/><g><path fill="rgb(254,209,54)" stroke="none" paint-order="stroke fill markers" fill-rule="evenodd" d=" M 8.356436252593994 1.9001963138580322 C 8.356436252593994 1.9001963138580322 35.2636775970459 1.9001963138580322 35.2636775970459 1.9001963138580322 C 37.49270057678223 1.9001963138580322 39.29981803894043 3.7070634365081787 39.29981803894043 5.935931444168091 C 39.29981803894043 5.935931444168091 39.29981803894043 23.425758123397827 39.29981803894043 23.425758123397827 C 39.29981803894043 25.65462613105774 37.49270057678223 27.46184492111206 35.2636775970459 27.46184492111206 C 35.2636775970459 27.46184492111206 8.356436252593994 27.46184492111206 8.356436252593994 27.46184492111206 C 6.127496719360352 27.46184492111206 4.320379257202148 25.65462613105774 4.320379257202148 23.425758123397827 C 4.320379257202148 23.425758123397827 4.320379257202148 5.935931444168091 4.320379257202148 5.935931444168091 C 4.320379257202148 3.7070634365081787 6.127496719360352 1.9001963138580322 8.356436252593994 1.9001963138580322 Z M 4.320379257202148 24.77123761177063 C 4.320379257202148 24.77123761177063 8.356436252593994 24.77123761177063 8.356436252593994 24.77123761177063 C 8.356436252593994 24.77123761177063 8.356436252593994 27.46184492111206 8.356436252593994 27.46184492111206 C 8.356436252593994 27.46184492111206 4.320379257202148 27.46184492111206 4.320379257202148 27.46184492111206 C 4.320379257202148 27.46184492111206 4.320379257202148 24.77123761177063 4.320379257202148 24.77123761177063 Z M 35.2636775970459 24.77123761177063 C 35.2636775970459 24.77123761177063 39.29981803894043 24.77123761177063 39.29981803894043 24.77123761177063 C 39.29981803894043 24.77123761177063 39.29981803894043 27.46184492111206 39.29981803894043 27.46184492111206 C 39.29981803894043 27.46184492111206 35.2636775970459 27.46184492111206 35.2636775970459 27.46184492111206 C 35.2636775970459 27.46184492111206 35.2636775970459 24.77123761177063 35.2636775970459 24.77123761177063 Z M 8.356436252593994 5.935931444168091 C 8.356436252593994 5.935931444168091 35.2636775970459 5.935931444168091 35.2636775970459 5.935931444168091 C 35.2636775970459 5.935931444168091 35.2636775970459 30.152100563049316 35.2636775970459 30.152100563049316 C 35.2636775970459 30.152100563049316 8.356436252593994 30.152100563049316 8.356436252593994 30.152100563049316 C 8.356436252593994 30.152100563049316 8.356436252593994 5.935931444168091 8.356436252593994 5.935931444168091 Z M 4.320379257202148 30.152100563049316 C 4.320379257202148 30.152100563049316 39.29981803894043 30.152100563049316 39.29981803894043 30.152100563049316 C 40.78574991226196 30.152100563049316 41.99055051803589 31.357264757156372 41.99055051803589 32.8434112071991 C 41.99055051803589 34.32920598983765 39.440425395965576 35.53401851654053 37.95441007614136 35.53401851654053 C 37.95441007614136 35.53401851654053 5.665787220001221 35.53401851654053 5.665787220001221 35.53401851654053 C 4.179688453674316 35.53401851654053 1.6296467781066895 34.32920598983765 1.6296467781066895 32.8434112071991 C 1.6296467781066895 31.357264757156372 2.8344473838806152 30.152100563049316 4.320379257202148 30.152100563049316 Z M 17.774041652679443 32.8434112071991 C 17.774041652679443 32.8434112071991 25.84623908996582 32.8434112071991 25.84623908996582 32.8434112071991 C 26.58924674987793 32.8434112071991 27.191647052764893 33.14443850517273 27.191647052764893 33.51579928398132 C 27.191647052764893 33.88716006278992 26.58924674987793 34.188539028167725 25.84623908996582 34.188539028167725 C 25.84623908996582 34.188539028167725 17.774041652679443 34.188539028167725 17.774041652679443 34.188539028167725 C 17.03095054626465 34.188539028167725 16.428800582885742 33.88716006278992 16.428800582885742 33.51579928398132 C 16.428800582885742 33.14443850517273 17.03095054626465 32.8434112071991 17.774041652679443 32.8434112071991 Z M 12.776680946350098 17.68408441543579 C 12.776680946350098 17.68408441543579 14.670916557312012 15.780860424041748 14.670916557312012 15.780860424041748 C 15.193875789642334 15.255820989608765 16.041942596435547 15.255820989608765 16.564985275268555 15.780860424041748 C 16.564985275268555 15.780860424041748 21.300490856170654 20.538217067718506 21.300490856170654 20.538217067718506 C 21.823450088500977 21.063608169555664 21.823450088500977 21.914994955062866 21.300490856170654 22.440386056900024 C 21.300490856170654 22.440386056900024 19.406338691711426 24.342906713485718 19.406338691711426 24.342906713485718 C 18.883129119873047 24.868297815322876 18.03514575958252 24.868297815322876 17.51210308074951 24.342906713485718 C 17.51210308074951 24.342906713485718 12.776680946350098 19.586605072021484 12.776680946350098 19.586605072021484 C 12.25363826751709 19.061213970184326 12.25363826751709 18.209827184677124 12.776680946350098 17.68408441543579 Z M 28.944440841674805 10.237175464630127 C 28.944440841674805 10.237175464630127 30.83867645263672 12.139344453811646 30.83867645263672 12.139344453811646 C 31.36163568496704 12.664735555648804 31.36163568496704 13.516825675964355 30.83867645263672 14.042216777801514 C 30.83867645263672 14.042216777801514 20.420630931854248 24.506432056427002 20.420630931854248 24.506432056427002 C 19.89758825302124 25.03182315826416 19.049604892730713 25.03182315826416 18.526395320892334 24.506432056427002 C 18.526395320892334 24.506432056427002 16.63232660293579 22.60391139984131 16.63232660293579 22.60391139984131 C 16.109283924102783 22.078168630599976 16.109283924102783 21.2264301776886 16.63232660293579 20.701390743255615 C 16.63232660293579 20.701390743255615 27.05020523071289 10.237175464630127 27.05020523071289 10.237175464630127 C 27.5732479095459 9.711432695388794 28.421398162841797 9.711432695388794 28.944440841674805 10.237175464630127 Z"/></g></svg>