<svg version="1.1" xmlns="http://www.w3.org/2000/svg" xmlns:xlink="http://www.w3.org/1999/xlink" width="31" height="40"><defs/><g><path fill="rgb(254,209,54)" stroke="none" paint-order="stroke fill markers" fill-rule="evenodd" d=" M 15.684865474700928 1.6327123641967773 C 20.839355945587158 1.6327123641967773 25.017772674560547 5.288998365402222 25.017772674560547 9.799484491348267 C 25.017772674560547 9.799484491348267 25.017772674560547 29.63211941719055 25.017772674560547 29.63211941719055 C 25.017772674560547 34.14190220832825 20.839355945587158 37.79783654212952 15.684865474700928 37.79783654212952 C 10.530458450317383 37.79783654212952 6.351958274841309 34.14190220832825 6.351958274841309 29.63211941719055 C 6.351958274841309 29.63211941719055 6.351958274841309 9.799484491348267 6.351958274841309 9.799484491348267 C 6.351958274841309 5.288998365402222 10.530458450317383 1.6327123641967773 15.684865474700928 1.6327123641967773 Z M 15.684865474700928 6.2993388175964355 C 18.262110710144043 6.2993388175964355 20.351277351379395 7.86672043800354 20.351277351379395 9.799484491348267 C 20.351277351379395 9.799484491348267 20.351277351379395 17.96520161628723 20.351277351379395 17.96520161628723 C 20.351277351379395 19.898669004440308 18.262110710144043 21.465347290039062 15.684865474700928 21.465347290039062 C 13.107703685760498 21.465347290039062 11.018370151519775 19.898669004440308 11.018370151519775 17.96520161628723 C 11.018370151519775 17.96520161628723 11.018370151519775 9.799484491348267 11.018370151519775 9.799484491348267 C 11.018370151519775 7.86672043800354 13.107703685760498 6.2993388175964355 15.684865474700928 6.2993388175964355 Z M 5.185376167297363 19.132385730743408 C 5.185376167297363 19.132385730743408 26.184438228607178 19.132385730743408 26.184438228607178 19.132385730743408 C 28.117393016815186 19.132385730743408 29.6842679977417 20.699064016342163 29.6842679977417 22.63253140449524 C 29.6842679977417 22.63253140449524 29.6842679977417 35.46487498283386 29.6842679977417 35.46487498283386 C 29.6842679977417 37.39763903617859 28.117393016815186 38.96502065658569 26.184438228607178 38.96502065658569 C 26.184438228607178 38.96502065658569 5.185376167297363 38.96502065658569 5.185376167297363 38.96502065658569 C 3.2524213790893555 38.96502065658569 1.6854629516601562 37.39763903617859 1.6854629516601562 35.46487498283386 C 1.6854629516601562 35.46487498283386 1.6854629516601562 22.63253140449524 1.6854629516601562 22.63253140449524 C 1.6854629516601562 20.699064016342163 3.2524213790893555 19.132385730743408 5.185376167297363 19.132385730743408 Z M 15.684865474700928 24.965492963790894 C 16.973613262176514 24.965492963790894 18.018113136291504 26.009945154190063 18.018113136291504 27.298102855682373 C 18.018113136291504 27.298102855682373 18.018113136291504 33.13121008872986 18.018113136291504 33.13121008872986 C 18.018113136291504 34.42077445983887 16.973613262176514 35.46487498283386 15.684865474700928 35.46487498283386 C 14.396284580230713 35.46487498283386 13.351701259613037 34.42077445983887 13.351701259613037 33.13121008872986 C 13.351701259613037 33.13121008872986 13.351701259613037 27.298102855682373 13.351701259613037 27.298102855682373 C 13.351701259613037 26.009945154190063 14.396284580230713 24.965492963790894 15.684865474700928 24.965492963790894 Z M 15.684865474700928 22.63253140449524 C 18.262110710144043 22.63253140449524 20.351277351379395 24.721787452697754 20.351277351379395 27.298102855682373 C 20.351277351379395 29.875473260879517 18.262110710144043 31.965080976486206 15.684865474700928 31.965080976486206 C 13.107703685760498 31.965080976486206 11.018370151519775 29.875473260879517 11.018370151519775 27.298102855682373 C 11.018370151519775 24.721787452697754 13.107703685760498 22.63253140449524 15.684865474700928 22.63253140449524 Z"/></g></svg>