<svg version="1.1" xmlns="http://www.w3.org/2000/svg" xmlns:xlink="http://www.w3.org/1999/xlink" width="42" height="42"><defs/><g><path fill="rgb(254,209,54)" stroke="none" paint-order="stroke fill markers" fill-rule="evenodd" d=" M 4.508257865905762 18.331077814102173 C 4.508257865905762 18.331077814102173 37.54814958572388 18.331077814102173 37.54814958572388 18.331077814102173 C 37.54814958572388 18.331077814102173 36.277342796325684 40.357765674591064 36.277342796325684 40.357765674591064 C 36.277342796325684 40.357765674591064 5.779064655303955 40.357765674591064 5.779064655303955 40.357765674591064 C 5.779064655303955 40.357765674591064 4.508257865905762 18.331077814102173 4.508257865905762 18.331077814102173 Z M 5.196691513061523 11.44789171218872 C 5.196691513061523 11.44789171218872 36.8597993850708 11.44789171218872 36.8597993850708 11.44789171218872 C 38.76062726974487 11.44789171218872 40.30155038833618 12.98854660987854 40.30155038833618 14.88930892944336 C 40.30155038833618 16.789719581604004 38.76062726974487 18.331077814102173 36.8597993850708 18.331077814102173 C 36.8597993850708 18.331077814102173 5.196691513061523 18.331077814102173 5.196691513061523 18.331077814102173 C 3.295863628387451 18.331077814102173 1.7549405097961426 16.789719581604004 1.7549405097961426 14.88930892944336 C 1.7549405097961426 12.98854660987854 3.295863628387451 11.44789171218872 5.196691513061523 11.44789171218872 Z M 3.131640911102295 18.331077814102173 C 3.131640911102295 18.331077814102173 38.924766540527344 18.331077814102173 38.924766540527344 18.331077814102173 C 38.924766540527344 18.331077814102173 38.924766540527344 19.70750403404236 38.924766540527344 19.70750403404236 C 38.924766540527344 19.70750403404236 3.131640911102295 19.70750403404236 3.131640911102295 19.70750403404236 C 3.131640911102295 19.70750403404236 3.131640911102295 18.331077814102173 3.131640911102295 18.331077814102173 Z M 21.028162002563477 25.2146155834198 C 21.788609981536865 25.2146155834198 22.40486240386963 25.830385208129883 22.40486240386963 26.59069013595581 C 22.40486240386963 26.59069013595581 22.40486240386963 34.8510057926178 22.40486240386963 34.8510057926178 C 22.40486240386963 35.611310720443726 21.788609981536865 36.22778367996216 21.028162002563477 36.22778367996216 C 20.267964363098145 36.22778367996216 19.65154504776001 35.611310720443726 19.65154504776001 34.8510057926178 C 19.65154504776001 34.8510057926178 19.65154504776001 26.59069013595581 19.65154504776001 26.59069013595581 C 19.65154504776001 25.830385208129883 20.267964363098145 25.2146155834198 21.028162002563477 25.2146155834198 Z M 29.288280963897705 25.2146155834198 C 30.048478603363037 25.2146155834198 30.664897918701172 25.830385208129883 30.664897918701172 26.59069013595581 C 30.664897918701172 26.59069013595581 30.664897918701172 34.8510057926178 30.664897918701172 34.8510057926178 C 30.664897918701172 35.611310720443726 30.048478603363037 36.22778367996216 29.288280963897705 36.22778367996216 C 28.527916431427002 36.22778367996216 27.911497116088867 35.611310720443726 27.911497116088867 34.8510057926178 C 27.911497116088867 34.8510057926178 27.911497116088867 26.59069013595581 27.911497116088867 26.59069013595581 C 27.911497116088867 25.830385208129883 28.527916431427002 25.2146155834198 29.288280963897705 25.2146155834198 Z M 12.768293380737305 25.2146155834198 C 13.528491020202637 25.2146155834198 14.144910335540771 25.830385208129883 14.144910335540771 26.59069013595581 C 14.144910335540771 26.59069013595581 14.144910335540771 34.8510057926178 14.144910335540771 34.8510057926178 C 14.144910335540771 35.611310720443726 13.528491020202637 36.22778367996216 12.768293380737305 36.22778367996216 C 12.007928848266602 36.22778367996216 11.391592979431152 35.611310720443726 11.391592979431152 34.8510057926178 C 11.391592979431152 34.8510057926178 11.391592979431152 26.59069013595581 11.391592979431152 26.59069013595581 C 11.391592979431152 25.830385208129883 12.007928848266602 25.2146155834198 12.768293380737305 25.2146155834198 Z M 24.814046382904053 2.641084909439087 C 26.130832195281982 1.8804283142089844 27.81478261947632 2.331617593765259 28.575063705444336 3.6486120223999023 C 28.575063705444336 3.6486120223999023 32.70508146286011 10.80223035812378 32.70508146286011 10.80223035812378 C 33.46527910232544 12.119224786758423 33.01425075531006 13.803008317947388 31.697298049926758 14.563313245773315 C 30.380345344543457 15.323618173599243 28.696478366851807 14.872077226638794 27.936113834381104 13.55508279800415 C 27.936113834381104 13.55508279800415 23.806262969970703 6.402167797088623 23.806262969970703 6.402167797088623 C 23.0458984375 5.0851733684539795 23.497010231018066 3.4017415046691895 24.814046382904053 2.641084909439087 Z M 17.242361068725586 2.641084909439087 C 15.92549180984497 1.8804283142089844 14.24162483215332 2.331617593765259 13.481176853179932 3.6486120223999023 C 13.481176853179932 3.6486120223999023 9.351242542266846 10.80223035812378 9.351242542266846 10.80223035812378 C 8.590961456298828 12.119224786758423 9.042073249816895 13.803008317947388 10.35910940170288 14.563313245773315 C 11.675978660583496 15.323618173599243 13.359845638275146 14.872077226638794 14.12021017074585 13.55508279800415 C 14.12021017074585 13.55508279800415 18.25006103515625 6.402167797088623 18.25006103515625 6.402167797088623 C 19.010425567626953 5.0851733684539795 18.5592303276062 3.4017415046691895 17.242361068725586 2.641084909439087 Z"/></g></svg>