<!-- Generated by IcoMoon.io -->
<svg version="1.1" xmlns="http://www.w3.org/2000/svg" width="32" height="32" viewBox="0 0 32 32">
<title>sickness</title>
<path fill="#006df0" d="M16 0c-7.468 0-13.757 5.144-15.512 12.075-0.020 0.053-0.033 0.107-0.040 0.162-0.292 1.207-0.448 2.468-0.448 3.764 0 3.797 1.33 7.289 3.549 10.036 0.033 0.056 0.074 0.106 0.121 0.15 2.937 3.549 7.374 5.814 12.33 5.814 8.822 0 16-7.178 16-16s-7.177-16-16-16zM16 1.342c6.67 0 12.314 4.479 14.082 10.587l-7.182 3.732c-0.67-0.694-1.608-1.127-2.646-1.127h-8.506c-1.054 0-2.005 0.446-2.676 1.158l-7.165-3.722c1.755-6.129 7.409-10.628 14.094-10.628zM9.409 23.83v-5.616c0-1.289 1.049-2.338 2.338-2.338h8.506c0.766 0 1.447 0.37 1.874 0.941 0 0 0 0 0 0.001 0.025 0.048 0.056 0.090 0.089 0.129 0.236 0.365 0.374 0.8 0.374 1.266v5.616c0 1.289-1.049 2.338-2.338 2.338h-8.506c-1.289 0-2.338-1.049-2.338-2.338zM1.589 13.318l6.751 3.507c-0.176 0.429-0.273 0.898-0.273 1.389v5.616c0 0.417 0.071 0.818 0.199 1.192h-3.81c-1.95-2.489-3.114-5.622-3.114-9.022 0-0.916 0.085-1.812 0.247-2.682zM5.645 26.364h3.437c0.671 0.705 1.617 1.146 2.665 1.146h8.506c1.048 0 1.994-0.441 2.665-1.146h3.437c-2.654 2.651-6.316 4.293-10.355 4.293s-7.701-1.642-10.355-4.293zM27.544 25.022h-3.81c0.128-0.374 0.199-0.775 0.199-1.192v-5.616c0-0.506-0.103-0.989-0.288-1.428l6.758-3.511c0.167 0.883 0.255 1.794 0.255 2.725 0 3.4-1.164 6.533-3.114 9.022z"></path>
<path fill="#006df0" d="M6.986 12.46c0.035 0.004 0.245 0.025 0.581 0.025 1.164 0 3.835-0.255 5.949-2.369 0.262-0.262 0.262-0.687 0-0.949s-0.687-0.262-0.949 0c-2.257 2.257-5.396 1.963-5.437 1.959-0.367-0.039-0.698 0.226-0.738 0.594s0.226 0.7 0.594 0.74z"></path>
<path fill="#006df0" d="M24.433 12.485c0.336 0 0.547-0.021 0.581-0.025 0.368-0.040 0.633-0.37 0.593-0.738s-0.37-0.635-0.738-0.596c-0.032 0.003-3.177 0.301-5.437-1.959-0.262-0.262-0.687-0.262-0.949 0s-0.262 0.687 0 0.949c2.114 2.115 4.786 2.369 5.949 2.369z"></path>
</svg>
