<svg xmlns="http://www.w3.org/2000/svg" xmlns:xlink="http://www.w3.org/1999/xlink"><symbol id="icon-Basket"><g><path fill="rgb(254,209,54)" stroke="none" paint-order="stroke fill markers" fill-rule="evenodd" d=" M 4.508257865905762 18.331077814102173 C 4.508257865905762 18.331077814102173 37.54814958572388 18.331077814102173 37.54814958572388 18.331077814102173 C 37.54814958572388 18.331077814102173 36.277342796325684 40.357765674591064 36.277342796325684 40.357765674591064 C 36.277342796325684 40.357765674591064 5.779064655303955 40.357765674591064 5.779064655303955 40.357765674591064 C 5.779064655303955 40.357765674591064 4.508257865905762 18.331077814102173 4.508257865905762 18.331077814102173 Z M 5.196691513061523 11.44789171218872 C 5.196691513061523 11.44789171218872 36.8597993850708 11.44789171218872 36.8597993850708 11.44789171218872 C 38.76062726974487 11.44789171218872 40.30155038833618 12.98854660987854 40.30155038833618 14.88930892944336 C 40.30155038833618 16.789719581604004 38.76062726974487 18.331077814102173 36.8597993850708 18.331077814102173 C 36.8597993850708 18.331077814102173 5.196691513061523 18.331077814102173 5.196691513061523 18.331077814102173 C 3.295863628387451 18.331077814102173 1.7549405097961426 16.789719581604004 1.7549405097961426 14.88930892944336 C 1.7549405097961426 12.98854660987854 3.295863628387451 11.44789171218872 5.196691513061523 11.44789171218872 Z M 3.131640911102295 18.331077814102173 C 3.131640911102295 18.331077814102173 38.924766540527344 18.331077814102173 38.924766540527344 18.331077814102173 C 38.924766540527344 18.331077814102173 38.924766540527344 19.70750403404236 38.924766540527344 19.70750403404236 C 38.924766540527344 19.70750403404236 3.131640911102295 19.70750403404236 3.131640911102295 19.70750403404236 C 3.131640911102295 19.70750403404236 3.131640911102295 18.331077814102173 3.131640911102295 18.331077814102173 Z M 21.028162002563477 25.2146155834198 C 21.788609981536865 25.2146155834198 22.40486240386963 25.830385208129883 22.40486240386963 26.59069013595581 C 22.40486240386963 26.59069013595581 22.40486240386963 34.8510057926178 22.40486240386963 34.8510057926178 C 22.40486240386963 35.611310720443726 21.788609981536865 36.22778367996216 21.028162002563477 36.22778367996216 C 20.267964363098145 36.22778367996216 19.65154504776001 35.611310720443726 19.65154504776001 34.8510057926178 C 19.65154504776001 34.8510057926178 19.65154504776001 26.59069013595581 19.65154504776001 26.59069013595581 C 19.65154504776001 25.830385208129883 20.267964363098145 25.2146155834198 21.028162002563477 25.2146155834198 Z M 29.288280963897705 25.2146155834198 C 30.048478603363037 25.2146155834198 30.664897918701172 25.830385208129883 30.664897918701172 26.59069013595581 C 30.664897918701172 26.59069013595581 30.664897918701172 34.8510057926178 30.664897918701172 34.8510057926178 C 30.664897918701172 35.611310720443726 30.048478603363037 36.22778367996216 29.288280963897705 36.22778367996216 C 28.527916431427002 36.22778367996216 27.911497116088867 35.611310720443726 27.911497116088867 34.8510057926178 C 27.911497116088867 34.8510057926178 27.911497116088867 26.59069013595581 27.911497116088867 26.59069013595581 C 27.911497116088867 25.830385208129883 28.527916431427002 25.2146155834198 29.288280963897705 25.2146155834198 Z M 12.768293380737305 25.2146155834198 C 13.528491020202637 25.2146155834198 14.144910335540771 25.830385208129883 14.144910335540771 26.59069013595581 C 14.144910335540771 26.59069013595581 14.144910335540771 34.8510057926178 14.144910335540771 34.8510057926178 C 14.144910335540771 35.611310720443726 13.528491020202637 36.22778367996216 12.768293380737305 36.22778367996216 C 12.007928848266602 36.22778367996216 11.391592979431152 35.611310720443726 11.391592979431152 34.8510057926178 C 11.391592979431152 34.8510057926178 11.391592979431152 26.59069013595581 11.391592979431152 26.59069013595581 C 11.391592979431152 25.830385208129883 12.007928848266602 25.2146155834198 12.768293380737305 25.2146155834198 Z M 24.814046382904053 2.641084909439087 C 26.130832195281982 1.8804283142089844 27.81478261947632 2.331617593765259 28.575063705444336 3.6486120223999023 C 28.575063705444336 3.6486120223999023 32.70508146286011 10.80223035812378 32.70508146286011 10.80223035812378 C 33.46527910232544 12.119224786758423 33.01425075531006 13.803008317947388 31.697298049926758 14.563313245773315 C 30.380345344543457 15.323618173599243 28.696478366851807 14.872077226638794 27.936113834381104 13.55508279800415 C 27.936113834381104 13.55508279800415 23.806262969970703 6.402167797088623 23.806262969970703 6.402167797088623 C 23.0458984375 5.0851733684539795 23.497010231018066 3.4017415046691895 24.814046382904053 2.641084909439087 Z M 17.242361068725586 2.641084909439087 C 15.92549180984497 1.8804283142089844 14.24162483215332 2.331617593765259 13.481176853179932 3.6486120223999023 C 13.481176853179932 3.6486120223999023 9.351242542266846 10.80223035812378 9.351242542266846 10.80223035812378 C 8.590961456298828 12.119224786758423 9.042073249816895 13.803008317947388 10.35910940170288 14.563313245773315 C 11.675978660583496 15.323618173599243 13.359845638275146 14.872077226638794 14.12021017074585 13.55508279800415 C 14.12021017074585 13.55508279800415 18.25006103515625 6.402167797088623 18.25006103515625 6.402167797088623 C 19.010425567626953 5.0851733684539795 18.5592303276062 3.4017415046691895 17.242361068725586 2.641084909439087 Z"/></g></symbol><symbol id="icon-Laptop"><g><path fill="rgb(254,209,54)" stroke="none" paint-order="stroke fill markers" fill-rule="evenodd" d=" M 8.356436252593994 1.9001963138580322 C 8.356436252593994 1.9001963138580322 35.2636775970459 1.9001963138580322 35.2636775970459 1.9001963138580322 C 37.49270057678223 1.9001963138580322 39.29981803894043 3.7070634365081787 39.29981803894043 5.935931444168091 C 39.29981803894043 5.935931444168091 39.29981803894043 23.425758123397827 39.29981803894043 23.425758123397827 C 39.29981803894043 25.65462613105774 37.49270057678223 27.46184492111206 35.2636775970459 27.46184492111206 C 35.2636775970459 27.46184492111206 8.356436252593994 27.46184492111206 8.356436252593994 27.46184492111206 C 6.127496719360352 27.46184492111206 4.320379257202148 25.65462613105774 4.320379257202148 23.425758123397827 C 4.320379257202148 23.425758123397827 4.320379257202148 5.935931444168091 4.320379257202148 5.935931444168091 C 4.320379257202148 3.7070634365081787 6.127496719360352 1.9001963138580322 8.356436252593994 1.9001963138580322 Z M 4.320379257202148 24.77123761177063 C 4.320379257202148 24.77123761177063 8.356436252593994 24.77123761177063 8.356436252593994 24.77123761177063 C 8.356436252593994 24.77123761177063 8.356436252593994 27.46184492111206 8.356436252593994 27.46184492111206 C 8.356436252593994 27.46184492111206 4.320379257202148 27.46184492111206 4.320379257202148 27.46184492111206 C 4.320379257202148 27.46184492111206 4.320379257202148 24.77123761177063 4.320379257202148 24.77123761177063 Z M 35.2636775970459 24.77123761177063 C 35.2636775970459 24.77123761177063 39.29981803894043 24.77123761177063 39.29981803894043 24.77123761177063 C 39.29981803894043 24.77123761177063 39.29981803894043 27.46184492111206 39.29981803894043 27.46184492111206 C 39.29981803894043 27.46184492111206 35.2636775970459 27.46184492111206 35.2636775970459 27.46184492111206 C 35.2636775970459 27.46184492111206 35.2636775970459 24.77123761177063 35.2636775970459 24.77123761177063 Z M 8.356436252593994 5.935931444168091 C 8.356436252593994 5.935931444168091 35.2636775970459 5.935931444168091 35.2636775970459 5.935931444168091 C 35.2636775970459 5.935931444168091 35.2636775970459 30.152100563049316 35.2636775970459 30.152100563049316 C 35.2636775970459 30.152100563049316 8.356436252593994 30.152100563049316 8.356436252593994 30.152100563049316 C 8.356436252593994 30.152100563049316 8.356436252593994 5.935931444168091 8.356436252593994 5.935931444168091 Z M 4.320379257202148 30.152100563049316 C 4.320379257202148 30.152100563049316 39.29981803894043 30.152100563049316 39.29981803894043 30.152100563049316 C 40.78574991226196 30.152100563049316 41.99055051803589 31.357264757156372 41.99055051803589 32.8434112071991 C 41.99055051803589 34.32920598983765 39.440425395965576 35.53401851654053 37.95441007614136 35.53401851654053 C 37.95441007614136 35.53401851654053 5.665787220001221 35.53401851654053 5.665787220001221 35.53401851654053 C 4.179688453674316 35.53401851654053 1.6296467781066895 34.32920598983765 1.6296467781066895 32.8434112071991 C 1.6296467781066895 31.357264757156372 2.8344473838806152 30.152100563049316 4.320379257202148 30.152100563049316 Z M 17.774041652679443 32.8434112071991 C 17.774041652679443 32.8434112071991 25.84623908996582 32.8434112071991 25.84623908996582 32.8434112071991 C 26.58924674987793 32.8434112071991 27.191647052764893 33.14443850517273 27.191647052764893 33.51579928398132 C 27.191647052764893 33.88716006278992 26.58924674987793 34.188539028167725 25.84623908996582 34.188539028167725 C 25.84623908996582 34.188539028167725 17.774041652679443 34.188539028167725 17.774041652679443 34.188539028167725 C 17.03095054626465 34.188539028167725 16.428800582885742 33.88716006278992 16.428800582885742 33.51579928398132 C 16.428800582885742 33.14443850517273 17.03095054626465 32.8434112071991 17.774041652679443 32.8434112071991 Z M 12.776680946350098 17.68408441543579 C 12.776680946350098 17.68408441543579 14.670916557312012 15.780860424041748 14.670916557312012 15.780860424041748 C 15.193875789642334 15.255820989608765 16.041942596435547 15.255820989608765 16.564985275268555 15.780860424041748 C 16.564985275268555 15.780860424041748 21.300490856170654 20.538217067718506 21.300490856170654 20.538217067718506 C 21.823450088500977 21.063608169555664 21.823450088500977 21.914994955062866 21.300490856170654 22.440386056900024 C 21.300490856170654 22.440386056900024 19.406338691711426 24.342906713485718 19.406338691711426 24.342906713485718 C 18.883129119873047 24.868297815322876 18.03514575958252 24.868297815322876 17.51210308074951 24.342906713485718 C 17.51210308074951 24.342906713485718 12.776680946350098 19.586605072021484 12.776680946350098 19.586605072021484 C 12.25363826751709 19.061213970184326 12.25363826751709 18.209827184677124 12.776680946350098 17.68408441543579 Z M 28.944440841674805 10.237175464630127 C 28.944440841674805 10.237175464630127 30.83867645263672 12.139344453811646 30.83867645263672 12.139344453811646 C 31.36163568496704 12.664735555648804 31.36163568496704 13.516825675964355 30.83867645263672 14.042216777801514 C 30.83867645263672 14.042216777801514 20.420630931854248 24.506432056427002 20.420630931854248 24.506432056427002 C 19.89758825302124 25.03182315826416 19.049604892730713 25.03182315826416 18.526395320892334 24.506432056427002 C 18.526395320892334 24.506432056427002 16.63232660293579 22.60391139984131 16.63232660293579 22.60391139984131 C 16.109283924102783 22.078168630599976 16.109283924102783 21.2264301776886 16.63232660293579 20.701390743255615 C 16.63232660293579 20.701390743255615 27.05020523071289 10.237175464630127 27.05020523071289 10.237175464630127 C 27.5732479095459 9.711432695388794 28.421398162841797 9.711432695388794 28.944440841674805 10.237175464630127 Z"/></g></symbol><symbol id="icon-Locked"><g><path fill="rgb(254,209,54)" stroke="none" paint-order="stroke fill markers" fill-rule="evenodd" d=" M 15.684865474700928 1.6327123641967773 C 20.839355945587158 1.6327123641967773 25.017772674560547 5.288998365402222 25.017772674560547 9.799484491348267 C 25.017772674560547 9.799484491348267 25.017772674560547 29.63211941719055 25.017772674560547 29.63211941719055 C 25.017772674560547 34.14190220832825 20.839355945587158 37.79783654212952 15.684865474700928 37.79783654212952 C 10.530458450317383 37.79783654212952 6.351958274841309 34.14190220832825 6.351958274841309 29.63211941719055 C 6.351958274841309 29.63211941719055 6.351958274841309 9.799484491348267 6.351958274841309 9.799484491348267 C 6.351958274841309 5.288998365402222 10.530458450317383 1.6327123641967773 15.684865474700928 1.6327123641967773 Z M 15.684865474700928 6.2993388175964355 C 18.262110710144043 6.2993388175964355 20.351277351379395 7.86672043800354 20.351277351379395 9.799484491348267 C 20.351277351379395 9.799484491348267 20.351277351379395 17.96520161628723 20.351277351379395 17.96520161628723 C 20.351277351379395 19.898669004440308 18.262110710144043 21.465347290039062 15.684865474700928 21.465347290039062 C 13.107703685760498 21.465347290039062 11.018370151519775 19.898669004440308 11.018370151519775 17.96520161628723 C 11.018370151519775 17.96520161628723 11.018370151519775 9.799484491348267 11.018370151519775 9.799484491348267 C 11.018370151519775 7.86672043800354 13.107703685760498 6.2993388175964355 15.684865474700928 6.2993388175964355 Z M 5.185376167297363 19.132385730743408 C 5.185376167297363 19.132385730743408 26.184438228607178 19.132385730743408 26.184438228607178 19.132385730743408 C 28.117393016815186 19.132385730743408 29.6842679977417 20.699064016342163 29.6842679977417 22.63253140449524 C 29.6842679977417 22.63253140449524 29.6842679977417 35.46487498283386 29.6842679977417 35.46487498283386 C 29.6842679977417 37.39763903617859 28.117393016815186 38.96502065658569 26.184438228607178 38.96502065658569 C 26.184438228607178 38.96502065658569 5.185376167297363 38.96502065658569 5.185376167297363 38.96502065658569 C 3.2524213790893555 38.96502065658569 1.6854629516601562 37.39763903617859 1.6854629516601562 35.46487498283386 C 1.6854629516601562 35.46487498283386 1.6854629516601562 22.63253140449524 1.6854629516601562 22.63253140449524 C 1.6854629516601562 20.699064016342163 3.2524213790893555 19.132385730743408 5.185376167297363 19.132385730743408 Z M 15.684865474700928 24.965492963790894 C 16.973613262176514 24.965492963790894 18.018113136291504 26.009945154190063 18.018113136291504 27.298102855682373 C 18.018113136291504 27.298102855682373 18.018113136291504 33.13121008872986 18.018113136291504 33.13121008872986 C 18.018113136291504 34.42077445983887 16.973613262176514 35.46487498283386 15.684865474700928 35.46487498283386 C 14.396284580230713 35.46487498283386 13.351701259613037 34.42077445983887 13.351701259613037 33.13121008872986 C 13.351701259613037 33.13121008872986 13.351701259613037 27.298102855682373 13.351701259613037 27.298102855682373 C 13.351701259613037 26.009945154190063 14.396284580230713 24.965492963790894 15.684865474700928 24.965492963790894 Z M 15.684865474700928 22.63253140449524 C 18.262110710144043 22.63253140449524 20.351277351379395 24.721787452697754 20.351277351379395 27.298102855682373 C 20.351277351379395 29.875473260879517 18.262110710144043 31.965080976486206 15.684865474700928 31.965080976486206 C 13.107703685760498 31.965080976486206 11.018370151519775 29.875473260879517 11.018370151519775 27.298102855682373 C 11.018370151519775 24.721787452697754 13.107703685760498 22.63253140449524 15.684865474700928 22.63253140449524 Z"/></g></symbol></svg>